<svg width="17" height="20" viewBox="0 0 17 20" fill="none" xmlns="http://www.w3.org/2000/svg">
<path d="M13.7575 10.7185C13.7617 9.12008 14.4962 7.92162 15.9663 7.04586C15.1583 5.86704 13.9264 5.21197 12.2962 5.07383C10.7528 4.93877 9.05429 5.94618 8.43557 5.9409C7.78168 5.93532 6.29375 5.06477 5.11723 5.05472C2.68887 5.07149 0.0922909 6.94783 0.059315 10.8102C0.0495703 11.9516 0.248092 13.1322 0.654899 14.3498C1.19904 15.9529 3.17647 19.8864 5.27459 19.841C6.37165 19.8246 7.15382 19.0789 8.58112 19.0911C9.96622 19.1029 10.6767 19.8871 11.9001 19.8975C14.0167 19.8851 15.8658 16.3407 16.4092 14.7421C13.5824 13.3796 13.7568 10.8006 13.7575 10.7185ZM11.3553 3.54933C12.5556 2.14859 12.4588 0.863342 12.4275 0.401339C11.3771 0.45331 10.1575 1.09683 9.45921 1.8948C8.69015 2.75077 8.23341 3.81331 8.31924 5.01643C9.45283 5.11283 10.4937 4.53811 11.3553 3.54933Z" fill="#1E1E1E"/>
</svg>
