<svg width="18" height="21" viewBox="0 0 18 21" fill="none" xmlns="http://www.w3.org/2000/svg">
<path d="M14.5086 11.0794C14.5129 9.48092 15.2474 8.28246 16.7174 7.4067C15.9094 6.22788 14.6775 5.57281 13.0474 5.43467C11.5039 5.29961 9.80542 6.30702 9.1867 6.30174C8.53281 6.29616 7.04488 5.42561 5.86836 5.41556C3.44 5.43233 0.84342 7.30867 0.810444 11.171C0.800699 12.3124 0.999221 13.493 1.40603 14.7106C1.95017 16.3138 3.9276 20.2472 6.02572 20.2018C7.12278 20.1854 7.90495 19.4397 9.33224 19.4519C10.7174 19.4637 11.4279 20.2479 12.6513 20.2584C14.7679 20.246 16.6169 16.7015 17.1603 15.1029C14.3335 13.7405 14.5079 11.1614 14.5086 11.0794ZM12.1064 3.91017C13.3067 2.50943 13.2099 1.22418 13.1787 0.762179C12.1282 0.81415 10.9086 1.45767 10.2103 2.25564C9.44128 3.11161 8.98454 4.17415 9.07036 5.37727C10.204 5.47367 11.2448 4.89895 12.1064 3.91017Z" fill="white"/>
</svg>
