<svg width="26" height="18" viewBox="0 0 26 18" fill="none" xmlns="http://www.w3.org/2000/svg">
<g filter="url(#filter0_d_5_498)">
<path d="M10.2131 12.4937L8.2866 11.9592L9.09866 9.02701C7.92438 8.5825 6.83498 7.94001 5.87776 7.12745L3.70645 9.26299L2.30358 7.83596L4.47589 5.70142C3.27244 4.23486 2.47039 2.48095 2.14826 0.611367L4.11925 0.269182C4.84235 4.47751 8.491 7.69678 12.9118 7.73452C17.3317 7.77226 21.0358 4.61576 21.8306 0.420398L23.7955 0.795186C23.4419 2.65925 22.6104 4.39957 21.3823 5.84577L23.5168 8.01707L22.0898 9.41994L19.9552 7.24764C18.9843 8.04374 17.8841 8.66753 16.7024 9.09193L17.4643 12.0385L15.5289 12.539L14.766 9.59242C13.5266 9.79392 12.262 9.78313 11.0262 9.56049L10.2131 12.4937Z" fill="#C4C4C4"/>
<path d="M22.2156 1.00286L23.1994 1.19051C22.8174 2.78463 22.0653 4.26906 21.0011 5.52212L20.7054 5.87043L21.0257 6.19629L22.8097 8.01103L22.0959 8.71278L20.3119 6.8972L19.9916 6.57125L19.6382 6.86099C18.7115 7.62086 17.6613 8.21627 16.5334 8.62136L16.1041 8.77552L16.2183 9.2171L16.855 11.6796L15.8877 11.9298L15.2501 9.4671L15.1358 9.02574L14.6858 9.0989C13.5024 9.2913 12.2948 9.28099 11.1148 9.06841L10.6661 8.98757L10.5443 9.42693L9.86487 11.8782L8.90185 11.611L9.58052 9.16046L9.70227 8.72088L9.27567 8.55939C8.15483 8.13511 7.115 7.52185 6.20134 6.74627L5.85296 6.45053L5.52716 6.77097L3.71241 8.55582L3.01074 7.84208L4.82632 6.05806L5.15241 5.73765L4.86241 5.38425C3.81966 4.11352 3.09268 2.61675 2.73754 1.01654L3.72437 0.845217C4.67744 5.04447 8.41418 8.19614 12.9076 8.2345C17.4 8.27286 21.191 5.18537 22.2156 1.00286Z" stroke="black"/>
</g>
<defs>
<filter id="filter0_d_5_498" x="-1.85175" y="0.269196" width="29.6472" height="20.2698" filterUnits="userSpaceOnUse" color-interpolation-filters="sRGB">
<feFlood flood-opacity="0" result="BackgroundImageFix"/>
<feColorMatrix in="SourceAlpha" type="matrix" values="0 0 0 0 0 0 0 0 0 0 0 0 0 0 0 0 0 0 127 0" result="hardAlpha"/>
<feOffset dy="4"/>
<feGaussianBlur stdDeviation="2"/>
<feComposite in2="hardAlpha" operator="out"/>
<feColorMatrix type="matrix" values="0 0 0 0 0 0 0 0 0 0 0 0 0 0 0 0 0 0 0.25 0"/>
<feBlend mode="normal" in2="BackgroundImageFix" result="effect1_dropShadow_5_498"/>
<feBlend mode="normal" in="SourceGraphic" in2="effect1_dropShadow_5_498" result="shape"/>
</filter>
</defs>
</svg>
