<svg width="25" height="25" viewBox="0 0 25 25" fill="none" xmlns="http://www.w3.org/2000/svg">
<path d="M24.0881 12.6574C24.145 5.98866 18.8184 0.536983 12.1916 0.480405C5.56185 0.425301 0.142903 5.78373 0.0859538 12.454C0.0345114 18.4793 4.38071 23.5116 10.1088 24.4665L10.1808 16.0293L7.13591 16.0033L7.1657 12.5144L10.2136 12.5405L10.2363 9.87805C10.2621 6.85266 12.0688 5.19703 14.8092 5.22043C16.1232 5.23164 17.4936 5.47885 17.4936 5.47885L17.4683 8.44874L15.9548 8.43582C14.4654 8.42311 13.9925 9.3506 13.9843 10.3061L13.965 12.571L17.2918 12.5994L16.7311 16.0837L13.9337 16.0598L13.8616 24.497C19.6052 23.64 24.0367 18.6827 24.0881 12.6574Z" fill="white"/>
</svg>
