<svg width="25" height="25" viewBox="0 0 25 25" fill="none" xmlns="http://www.w3.org/2000/svg">
<path d="M24.2501 12.8918C24.3071 6.22303 18.9804 0.771358 12.3537 0.71478C5.7239 0.659676 0.304951 6.01811 0.248002 12.6884C0.19656 18.7136 4.54276 23.7459 10.2708 24.7009L10.3428 16.2637L7.29796 16.2377L7.32774 12.7488L10.3756 12.7748L10.3984 10.1124C10.4242 7.08704 12.2309 5.4314 14.9713 5.4548C16.2852 5.46602 17.6557 5.71323 17.6557 5.71323L17.6303 8.68312L16.1169 8.6702C14.6274 8.65748 14.1545 9.58498 14.1463 10.5404L14.127 12.8054L17.4539 12.8338L16.8931 16.3181L14.0957 16.2942L14.0237 24.7314C19.7672 23.8744 24.1987 18.9171 24.2501 12.8918Z" fill="#0047FF"/>
</svg>
