<svg width="21" height="21" viewBox="0 0 21 21" fill="none" xmlns="http://www.w3.org/2000/svg">
<path d="M20.0137 8.71396C20.1311 9.37399 20.1922 10.0635 20.1861 10.7825C20.1381 16.4063 16.3401 20.373 10.6553 20.3245C9.36246 20.3138 8.08443 20.0486 6.89419 19.5438C5.70395 19.0391 4.62483 18.3047 3.71849 17.3828C2.81215 16.4608 2.09635 15.3693 1.612 14.1707C1.12765 12.972 0.884232 11.6896 0.895664 10.3968C0.906307 9.104 1.17158 7.82597 1.67633 6.63573C2.18108 5.44549 2.91541 4.36637 3.83735 3.46003C4.7593 2.55369 5.85081 1.83789 7.04949 1.35354C8.24818 0.869187 9.53055 0.625773 10.8233 0.637205C13.4813 0.659897 15.6938 1.65682 17.3842 3.25931L14.5856 6.01052L14.5857 6.00352C13.5611 5.01074 12.2545 4.49456 10.7905 4.48206C7.54264 4.45434 4.87931 7.1757 4.85157 10.4246C4.82384 13.6725 7.44027 16.4449 10.6881 16.4726C13.635 16.4978 15.6554 14.83 16.0871 12.5196L10.7223 12.4738L10.7551 8.63491L20.0147 8.71397L20.0137 8.71396Z" fill="white"/>
</svg>
