<svg width="25" height="25" viewBox="0 0 25 25" fill="none" xmlns="http://www.w3.org/2000/svg">
<path d="M22.0701 10.5412L21.2646 10.5344L21.265 10.4929L12.2653 10.416L12.2311 14.4159L17.8824 14.4641C17.0381 16.7855 14.8084 18.438 12.197 18.4157C8.88361 18.3874 6.22014 15.6781 6.24843 12.3647C6.27672 9.05134 8.98606 6.38787 12.2994 6.41616C13.8289 6.42922 15.2154 7.01808 16.2668 7.96959L19.1194 5.16534C17.3476 3.48565 14.9675 2.43879 12.3336 2.41631C6.81129 2.36916 2.29573 6.80827 2.24858 12.3306C2.20143 17.8529 6.64054 22.3684 12.1628 22.4156C17.6851 22.4627 22.2007 18.0236 22.2479 12.5013C22.2536 11.8308 22.1902 11.1758 22.0701 10.5412Z" fill="#FFC107"/>
<path d="M3.44159 7.68606L6.7064 10.1235C7.61416 7.9302 9.78035 6.39463 12.2998 6.41614C13.8292 6.4292 15.2157 7.01806 16.2671 7.96957L19.1197 5.16532C17.348 3.48564 14.9678 2.43878 12.3339 2.41629C8.49305 2.3835 5.14365 4.52348 3.44159 7.68606Z" fill="#FF3D00"/>
<path d="M12.163 22.4155C14.7459 22.4376 17.1013 21.4692 18.8894 19.8769L15.8169 17.2315C14.7725 18.0118 13.5008 18.4278 12.1971 18.4157C9.59624 18.3935 7.40198 16.7162 6.58977 14.3947L3.30744 16.8792C4.93473 20.1317 8.27664 22.3824 12.163 22.4155Z" fill="#4CAF50"/>
<path d="M22.0701 10.5412L21.2646 10.5344L21.265 10.4929L12.2653 10.416L12.2311 14.4159L17.8824 14.4641C17.4786 15.5689 16.7599 16.5312 15.8152 17.2321L15.8167 17.2311L18.8893 19.8764C18.6686 20.0735 22.2052 17.5011 22.2479 12.5013C22.2536 11.8308 22.1902 11.1758 22.0701 10.5412Z" fill="#1976D2"/>
</svg>
